<?xml version="1.0" standalone="no"?>
<!DOCTYPE svg PUBLIC "-//W3C//DTD SVG 20010904//EN"
 "http://www.w3.org/TR/2001/REC-SVG-20010904/DTD/svg10.dtd">
<svg version="1.0" xmlns="http://www.w3.org/2000/svg"
 width="500.000000pt" height="500.000000pt" viewBox="0 0 500.000000 500.000000"
 preserveAspectRatio="xMidYMid meet">

<g transform="translate(0.000000,500.000000) scale(0.100000,-0.100000)"
fill="#000000" stroke="none">
<path d="M2655 3806 c-156 -31 -271 -92 -381 -202 -67 -67 -91 -99 -128 -175
-62 -126 -80 -200 -80 -329 0 -129 18 -203 80 -329 38 -76 61 -108 129 -176
68 -68 100 -91 176 -129 126 -62 200 -80 329 -80 129 0 203 18 329 80 132 65
240 173 305 305 62 126 80 200 80 329 0 129 -18 203 -80 329 -38 76 -61 108
-129 176 -130 130 -288 200 -475 210 -51 3 -113 -1 -155 -9z m-126 -523 c18
-15 26 -45 48 -178 14 -88 29 -163 33 -168 3 -4 19 66 34 155 34 199 40 208
132 208 88 0 94 -9 129 -215 17 -98 32 -159 35 -149 4 11 17 85 30 167 27 176
38 197 105 197 39 0 75 -18 75 -38 0 -4 -24 -106 -54 -227 -64 -258 -63 -257
-164 -253 -88 4 -94 14 -129 211 -17 96 -31 151 -35 140 -4 -10 -16 -74 -28
-143 -36 -208 -37 -210 -139 -210 -66 0 -95 17 -106 62 -3 13 -25 105 -50 206
-48 196 -52 221 -33 240 18 18 92 15 117 -5z"/>
</g>
</svg>
